<mxfile host="Electron" agent="Mozilla/5.0 (Windows NT 10.0; Win64; x64) AppleWebKit/537.36 (KHTML, like Gecko) draw.io/24.7.5 Chrome/126.0.6478.183 Electron/31.3.0 Safari/537.36" version="24.7.5">
  <diagram name="第 1 页" id="gbJnBAvDEpOmT0v-UIrY">
    <mxGraphModel dx="1770" dy="705" grid="1" gridSize="10" guides="1" tooltips="1" connect="1" arrows="1" fold="1" page="1" pageScale="1" pageWidth="827" pageHeight="1169" math="0" shadow="0">
      <root>
        <mxCell id="0" />
        <mxCell id="1" parent="0" />
        <mxCell id="1Ue88q87sezuX__Ma_oR-30" value="" style="rounded=0;whiteSpace=wrap;html=1;" vertex="1" parent="1">
          <mxGeometry x="-240" y="320" width="790" height="600" as="geometry" />
        </mxCell>
        <mxCell id="1Ue88q87sezuX__Ma_oR-3" style="edgeStyle=orthogonalEdgeStyle;rounded=0;orthogonalLoop=1;jettySize=auto;html=1;exitX=0.5;exitY=1;exitDx=0;exitDy=0;entryX=0.5;entryY=0;entryDx=0;entryDy=0;" edge="1" parent="1" source="1Ue88q87sezuX__Ma_oR-1" target="1Ue88q87sezuX__Ma_oR-2">
          <mxGeometry relative="1" as="geometry" />
        </mxCell>
        <mxCell id="1Ue88q87sezuX__Ma_oR-5" style="edgeStyle=orthogonalEdgeStyle;rounded=0;orthogonalLoop=1;jettySize=auto;html=1;exitX=0.5;exitY=1;exitDx=0;exitDy=0;entryX=0.5;entryY=0;entryDx=0;entryDy=0;" edge="1" parent="1" source="1Ue88q87sezuX__Ma_oR-1" target="1Ue88q87sezuX__Ma_oR-4">
          <mxGeometry relative="1" as="geometry" />
        </mxCell>
        <mxCell id="1Ue88q87sezuX__Ma_oR-7" style="edgeStyle=orthogonalEdgeStyle;rounded=0;orthogonalLoop=1;jettySize=auto;html=1;exitX=0.5;exitY=1;exitDx=0;exitDy=0;entryX=0.5;entryY=0;entryDx=0;entryDy=0;" edge="1" parent="1" source="1Ue88q87sezuX__Ma_oR-1" target="1Ue88q87sezuX__Ma_oR-6">
          <mxGeometry relative="1" as="geometry" />
        </mxCell>
        <mxCell id="1Ue88q87sezuX__Ma_oR-10" style="edgeStyle=orthogonalEdgeStyle;rounded=0;orthogonalLoop=1;jettySize=auto;html=1;exitX=0.5;exitY=1;exitDx=0;exitDy=0;entryX=0.5;entryY=0;entryDx=0;entryDy=0;" edge="1" parent="1" source="1Ue88q87sezuX__Ma_oR-1" target="1Ue88q87sezuX__Ma_oR-9">
          <mxGeometry relative="1" as="geometry">
            <Array as="points">
              <mxPoint x="340" y="200" />
              <mxPoint x="130" y="200" />
            </Array>
          </mxGeometry>
        </mxCell>
        <mxCell id="1Ue88q87sezuX__Ma_oR-1" value="Base" style="rounded=0;whiteSpace=wrap;html=1;" vertex="1" parent="1">
          <mxGeometry x="280" y="130" width="120" height="60" as="geometry" />
        </mxCell>
        <mxCell id="1Ue88q87sezuX__Ma_oR-2" value="Draw" style="rounded=0;whiteSpace=wrap;html=1;" vertex="1" parent="1">
          <mxGeometry x="414" y="240" width="120" height="60" as="geometry" />
        </mxCell>
        <mxCell id="1Ue88q87sezuX__Ma_oR-4" value="Report" style="rounded=0;whiteSpace=wrap;html=1;" vertex="1" parent="1">
          <mxGeometry x="560" y="240" width="120" height="60" as="geometry" />
        </mxCell>
        <mxCell id="1Ue88q87sezuX__Ma_oR-6" value="Common Component" style="rounded=0;whiteSpace=wrap;html=1;" vertex="1" parent="1">
          <mxGeometry x="270" y="240" width="120" height="60" as="geometry" />
        </mxCell>
        <mxCell id="1Ue88q87sezuX__Ma_oR-14" style="edgeStyle=orthogonalEdgeStyle;rounded=0;orthogonalLoop=1;jettySize=auto;html=1;exitX=0.5;exitY=1;exitDx=0;exitDy=0;entryX=0.5;entryY=0;entryDx=0;entryDy=0;" edge="1" parent="1" source="1Ue88q87sezuX__Ma_oR-9" target="1Ue88q87sezuX__Ma_oR-13">
          <mxGeometry relative="1" as="geometry" />
        </mxCell>
        <mxCell id="1Ue88q87sezuX__Ma_oR-16" style="edgeStyle=orthogonalEdgeStyle;rounded=0;orthogonalLoop=1;jettySize=auto;html=1;exitX=0.5;exitY=1;exitDx=0;exitDy=0;entryX=0.5;entryY=0;entryDx=0;entryDy=0;" edge="1" parent="1" source="1Ue88q87sezuX__Ma_oR-9" target="1Ue88q87sezuX__Ma_oR-15">
          <mxGeometry relative="1" as="geometry" />
        </mxCell>
        <mxCell id="1Ue88q87sezuX__Ma_oR-21" style="edgeStyle=orthogonalEdgeStyle;rounded=0;orthogonalLoop=1;jettySize=auto;html=1;exitX=0.75;exitY=1;exitDx=0;exitDy=0;" edge="1" parent="1" source="1Ue88q87sezuX__Ma_oR-9" target="1Ue88q87sezuX__Ma_oR-20">
          <mxGeometry relative="1" as="geometry" />
        </mxCell>
        <mxCell id="1Ue88q87sezuX__Ma_oR-9" value="Classification" style="shape=process;whiteSpace=wrap;html=1;backgroundOutline=1;" vertex="1" parent="1">
          <mxGeometry x="70" y="360" width="120" height="60" as="geometry" />
        </mxCell>
        <mxCell id="1Ue88q87sezuX__Ma_oR-11" value="name&lt;div&gt;special function&lt;/div&gt;" style="shape=parallelogram;html=1;strokeWidth=2;perimeter=parallelogramPerimeter;whiteSpace=wrap;rounded=1;arcSize=12;size=0.23;" vertex="1" parent="1">
          <mxGeometry x="-200" y="480" width="140" height="60" as="geometry" />
        </mxCell>
        <mxCell id="1Ue88q87sezuX__Ma_oR-12" style="edgeStyle=orthogonalEdgeStyle;rounded=0;orthogonalLoop=1;jettySize=auto;html=1;exitX=0.25;exitY=1;exitDx=0;exitDy=0;entryX=0.586;entryY=-0.005;entryDx=0;entryDy=0;entryPerimeter=0;" edge="1" parent="1" source="1Ue88q87sezuX__Ma_oR-9" target="1Ue88q87sezuX__Ma_oR-11">
          <mxGeometry relative="1" as="geometry" />
        </mxCell>
        <mxCell id="1Ue88q87sezuX__Ma_oR-13" value="init:初始化很多东西" style="rounded=0;whiteSpace=wrap;html=1;" vertex="1" parent="1">
          <mxGeometry x="-30" y="500" width="120" height="60" as="geometry" />
        </mxCell>
        <mxCell id="1Ue88q87sezuX__Ma_oR-15" value="解释" style="rounded=0;whiteSpace=wrap;html=1;" vertex="1" parent="1">
          <mxGeometry x="120" y="500" width="120" height="60" as="geometry" />
        </mxCell>
        <mxCell id="1Ue88q87sezuX__Ma_oR-17" value="model" style="rounded=0;whiteSpace=wrap;html=1;" vertex="1" parent="1">
          <mxGeometry x="-20" y="600" width="120" height="60" as="geometry" />
        </mxCell>
        <mxCell id="1Ue88q87sezuX__Ma_oR-18" style="edgeStyle=isometricEdgeStyle;rounded=0;orthogonalLoop=1;jettySize=auto;html=1;exitX=0.5;exitY=1;exitDx=0;exitDy=0;entryX=0.452;entryY=0.138;entryDx=0;entryDy=0;entryPerimeter=0;endArrow=block;endFill=0;elbow=vertical;" edge="1" parent="1" source="1Ue88q87sezuX__Ma_oR-13" target="1Ue88q87sezuX__Ma_oR-17">
          <mxGeometry relative="1" as="geometry" />
        </mxCell>
        <mxCell id="1Ue88q87sezuX__Ma_oR-19" style="edgeStyle=orthogonalEdgeStyle;rounded=0;orthogonalLoop=1;jettySize=auto;html=1;exitX=0.5;exitY=1;exitDx=0;exitDy=0;entryX=0.657;entryY=0.043;entryDx=0;entryDy=0;entryPerimeter=0;" edge="1" parent="1" source="1Ue88q87sezuX__Ma_oR-9" target="1Ue88q87sezuX__Ma_oR-17">
          <mxGeometry relative="1" as="geometry" />
        </mxCell>
        <mxCell id="1Ue88q87sezuX__Ma_oR-26" style="edgeStyle=orthogonalEdgeStyle;rounded=0;orthogonalLoop=1;jettySize=auto;html=1;exitX=0.5;exitY=1;exitDx=0;exitDy=0;entryX=0.5;entryY=0;entryDx=0;entryDy=0;" edge="1" parent="1" source="1Ue88q87sezuX__Ma_oR-20" target="1Ue88q87sezuX__Ma_oR-24">
          <mxGeometry relative="1" as="geometry" />
        </mxCell>
        <mxCell id="1Ue88q87sezuX__Ma_oR-20" value="settings" style="rounded=0;whiteSpace=wrap;html=1;" vertex="1" parent="1">
          <mxGeometry x="280" y="500" width="120" height="60" as="geometry" />
        </mxCell>
        <mxCell id="1Ue88q87sezuX__Ma_oR-23" style="edgeStyle=orthogonalEdgeStyle;rounded=0;orthogonalLoop=1;jettySize=auto;html=1;exitX=0;exitY=0.5;exitDx=0;exitDy=0;entryX=1;entryY=0.5;entryDx=0;entryDy=0;" edge="1" parent="1" source="1Ue88q87sezuX__Ma_oR-22" target="1Ue88q87sezuX__Ma_oR-20">
          <mxGeometry relative="1" as="geometry" />
        </mxCell>
        <mxCell id="1Ue88q87sezuX__Ma_oR-27" style="edgeStyle=orthogonalEdgeStyle;rounded=0;orthogonalLoop=1;jettySize=auto;html=1;exitX=0;exitY=0.5;exitDx=0;exitDy=0;entryX=1;entryY=0.5;entryDx=0;entryDy=0;" edge="1" parent="1" source="1Ue88q87sezuX__Ma_oR-22" target="1Ue88q87sezuX__Ma_oR-24">
          <mxGeometry relative="1" as="geometry" />
        </mxCell>
        <mxCell id="1Ue88q87sezuX__Ma_oR-22" value="AutoML" style="rounded=0;whiteSpace=wrap;html=1;" vertex="1" parent="1">
          <mxGeometry x="830" y="500" width="120" height="60" as="geometry" />
        </mxCell>
        <mxCell id="1Ue88q87sezuX__Ma_oR-24" value="cumstomization" style="rounded=0;whiteSpace=wrap;html=1;" vertex="1" parent="1">
          <mxGeometry x="280" y="580" width="120" height="60" as="geometry" />
        </mxCell>
        <mxCell id="1Ue88q87sezuX__Ma_oR-28" value="special components" style="rounded=0;whiteSpace=wrap;html=1;" vertex="1" parent="1">
          <mxGeometry x="70" y="730" width="120" height="60" as="geometry" />
        </mxCell>
        <mxCell id="1Ue88q87sezuX__Ma_oR-29" value="hyper parameters" style="rounded=0;whiteSpace=wrap;html=1;" vertex="1" parent="1">
          <mxGeometry x="230" y="730" width="120" height="60" as="geometry" />
        </mxCell>
      </root>
    </mxGraphModel>
  </diagram>
</mxfile>
